<svg id="svg" xmlns="http://www.w3.org/2000/svg" xmlns:xlink="http://www.w3.org/1999/xlink" width="400" height="400" viewBox="0, 0, 400,400"><g id="svgg"><path id="path0" d="M218.667 58.173 C 161.425 69.196,143.166 131.652,185.209 172.617 C 196.450 183.569,194.858 185.351,174.000 185.165 C 164.166 185.078,157.704 185.827,149.376 188.021 C 126.346 194.088,117.395 191.969,101.333 176.648 C 80.248 156.535,69.747 160.384,59.442 192.000 C 40.410 250.387,76.666 313.639,138.000 329.054 C 162.435 335.196,225.408 337.658,250.667 333.460 C 338.292 318.895,362.820 230.871,292.554 183.141 C 271.713 168.984,273.688 159.953,297.836 158.984 C 325.295 157.882,333.940 143.639,308.982 140.618 C 299.504 139.471,298.247 137.908,305.280 136.014 C 319.252 132.252,334.605 114.940,333.969 103.664 C 333.409 93.752,327.418 92.487,315.174 99.694 C 299.337 109.017,291.070 108.130,286.773 96.646 C 276.216 68.429,248.046 52.516,218.667 58.173 M252.571 100.762 C 257.670 105.861,253.643 116.000,246.519 116.000 C 243.062 116.000,238.667 111.315,238.667 107.630 C 238.667 100.078,247.516 95.707,252.571 100.762 " stroke="none" fill="#000000" fill-rule="evenodd"></path></g></svg>